<svg width="32" height="34" viewBox="0 0 32 34" fill="none" xmlns="http://www.w3.org/2000/svg">
<path d="M6.87598e-08 28.2339C5.11088e-08 29.7141 0.559073 31.0286 1.67722 32.1774C2.85987 33.3925 4.29518 34 5.98314 34C7.67111 34 9.10641 33.3925 10.2891 32.1774L29.9641 13.1228C30.9317 12.1507 31.5553 11.0296 31.8348 9.75926C32.1144 8.48895 32.0391 7.20208 31.609 5.89864C31.179 4.59519 30.4371 3.39116 29.3835 2.28655C29.018 1.93307 28.6148 1.60721 28.174 1.30896C27.7332 1.01072 27.2709 0.767708 26.7871 0.579922C26.3032 0.392139 25.7925 0.248539 25.255 0.149124C24.7174 0.0497054 24.1798 -9.32545e-08 23.6423 -9.96649e-08C21.363 0.0441855 19.46 0.839508 17.9333 2.38597L3.03189 16.8012C2.81686 17 2.70397 17.243 2.69322 17.5302C2.68247 17.8174 2.77386 18.066 2.96738 18.2758C3.1609 18.4857 3.40281 18.5962 3.6931 18.6072C3.98339 18.6183 4.23604 18.5244 4.45107 18.3255L19.3525 3.91033C20.5136 2.73944 21.9543 2.14295 23.6745 2.12086C25.3947 2.09876 26.8032 2.66212 27.8998 3.81091C28.6094 4.51787 29.147 5.30214 29.5125 6.16374C29.8781 7.02534 29.9963 7.95322 29.8673 8.94737C29.7383 9.94152 29.2975 10.8252 28.5449 11.5984L8.86988 30.653C8.07428 31.4704 7.11741 31.8791 5.99927 31.8791C4.88112 31.8791 3.92425 31.4704 3.12865 30.653C2.7631 30.2775 2.48895 29.8687 2.30617 29.4269C2.1234 28.9851 2.05351 28.5211 2.09652 28.0351C2.13952 27.063 2.58033 26.1572 3.41894 25.3177L19.0944 10.1735C19.202 10.063 19.3148 9.95809 19.4331 9.85867C19.5514 9.75926 19.6911 9.65432 19.8524 9.54386C20.0137 9.4334 20.1857 9.34503 20.3685 9.27875C20.5513 9.21247 20.734 9.16829 20.9168 9.1462C21.0996 9.12411 21.2877 9.15724 21.4812 9.24561C21.6748 9.33398 21.8575 9.46654 22.0296 9.64327C22.4596 10.063 22.6531 10.4717 22.6101 10.8694C22.5671 11.2891 22.2984 11.7641 21.8038 12.2943L9.99878 23.694C9.86976 23.8265 9.77838 23.9812 9.72462 24.1579C9.67086 24.3346 9.66549 24.5169 9.70849 24.7047C9.7515 24.8925 9.83751 25.0526 9.96652 25.1852C10.16 25.4061 10.3966 25.5166 10.6761 25.5166C10.9557 25.5166 11.2029 25.4172 11.418 25.2183L23.2552 13.8187C24.1153 12.9129 24.5884 11.9961 24.6744 11.0682C24.7604 10.0078 24.3734 9.03574 23.5133 8.15205C22.7177 7.31254 21.7823 6.9425 20.7071 7.04191C19.632 7.14132 18.6214 7.67706 17.6753 8.64912L1.9675 23.7934C0.763348 25.0305 0.118267 26.4113 0.0322552 27.9357C0.0322552 27.9799 0.0268765 28.0296 0.0161267 28.0848C0.00537498 28.14 6.92867e-08 28.1897 6.87598e-08 28.2339Z" fill="#666262"/>
</svg>
