<svg width="18" height="18" viewBox="0 0 18 18" fill="none" xmlns="http://www.w3.org/2000/svg">
<circle cx="9" cy="9" r="9" fill="#479F79"/>
<path d="M6.67082 7.66459C6.48558 7.29411 6.03507 7.14394 5.66459 7.32918C5.29411 7.51442 5.14394 7.96493 5.32918 8.33541L6.67082 7.66459ZM13.1708 5.33541C13.3561 4.96493 13.2059 4.51442 12.8354 4.32918C12.4649 4.14394 12.0144 4.29411 11.8292 4.66459L13.1708 5.33541ZM8.5 13L7.82918 13.3354C7.95622 13.5895 8.21592 13.75 8.5 13.75C8.78408 13.75 9.04378 13.5895 9.17082 13.3354L8.5 13ZM5.32918 8.33541L7.82918 13.3354L9.17082 12.6646L6.67082 7.66459L5.32918 8.33541ZM9.17082 13.3354L13.1708 5.33541L11.8292 4.66459L7.82918 12.6646L9.17082 13.3354Z" fill="white"/>
</svg>
