<svg width="13" height="13" viewBox="0 0 13 13" fill="none" xmlns="http://www.w3.org/2000/svg">
<path d="M6.82475 6.49611L12.9334 0.386218C12.9759 0.343393 12.9997 0.285571 12.9997 0.225314C12.9997 0.165058 12.9759 0.107235 12.9334 0.0644107C12.89 0.0229887 12.8322 -8.23455e-05 12.7721 2.20852e-07C12.712 8.27872e-05 12.6543 0.0233128 12.6109 0.0648542L6.50307 6.17431L0.394373 0.0644107C0.350864 0.0232598 0.293228 0.000326565 0.233314 0.000326565C0.1734 0.000326565 0.115763 0.0232598 0.0722551 0.0644107C0.0298519 0.10716 0.0060623 0.164909 0.0060623 0.225093C0.0060623 0.285276 0.0298519 0.343025 0.0722551 0.385774L6.1814 6.49611L0.0726987 12.606C0.0502827 12.6268 0.0322951 12.6519 0.0198108 12.6798C0.00732643 12.7077 0.0006017 12.7379 3.85611e-05 12.7684C-0.000524578 12.799 0.00508537 12.8293 0.0165332 12.8577C0.027981 12.886 0.0450315 12.9118 0.0666659 12.9334C0.0883003 12.955 0.114074 12.972 0.142448 12.9835C0.170821 12.9949 0.201211 13.0005 0.231801 13C0.262392 12.9994 0.292555 12.9927 0.320487 12.9802C0.34842 12.9677 0.373549 12.9498 0.394373 12.9274L6.50307 6.81792L12.6113 12.9278C12.6324 12.9489 12.6575 12.9657 12.6851 12.9772C12.7127 12.9886 12.7423 12.9945 12.7722 12.9945C12.8021 12.9945 12.8317 12.9887 12.8593 12.9773C12.887 12.9659 12.9121 12.9491 12.9332 12.928C12.9544 12.9069 12.9712 12.8819 12.9826 12.8543C12.9941 12.8267 13 12.7972 13 12.7673C13 12.7374 12.9942 12.7079 12.9827 12.6803C12.9713 12.6527 12.9546 12.6276 12.9334 12.6065L6.82475 6.49611Z" fill="#666262"/>
</svg>
