<svg width="34" height="32" viewBox="0 0 34 32" fill="none" xmlns="http://www.w3.org/2000/svg">
<path d="M33.2302 14.8098L2.10061 0.140838C1.85663 0.0258422 1.58257 -0.0202342 1.31145 0.00815715C1.04032 0.0365485 0.783683 0.138197 0.572434 0.300863C0.370692 0.460212 0.220113 0.669437 0.137624 0.905017C0.0551345 1.1406 0.0440063 1.39319 0.10549 1.63441L3.85519 14.6631H19.8586V17.3302H3.85519L0.048891 30.3189C-0.00880276 30.5204 -0.0155374 30.7318 0.0292288 30.9361C0.073995 31.1404 0.169013 31.332 0.306642 31.4955C0.444272 31.6589 0.620672 31.7896 0.821659 31.8771C1.02265 31.9646 1.24261 32.0064 1.46387 31.9992C1.68538 31.998 1.90347 31.9477 2.10061 31.8525L33.2302 17.1835C33.462 17.0716 33.6565 16.9016 33.7923 16.6922C33.9281 16.4828 34 16.2421 34 15.9967C34 15.7512 33.9281 15.5106 33.7923 15.3012C33.6565 15.0918 33.462 14.9217 33.2302 14.8098Z" fill="#898686"/>
</svg>
